# xmcd
#
# Track frame offsets:
#	150
#	5358
#	18691
#	33854
#	44509
#	54811
#	72137
#	75858
#	91242
#	95974
#	110367
#	126123
#	138016
#	145614
#	154823
#	170099
#	186410
#
# Disc length: 2650 seconds
#
# Revision: 0
# Processed by: cddbd v1.5.1PL2 Copyright (c) Steve Scherf et al.
# Submitted via: EasyCDDAExtractor 9.0.0.1
#
DISCID=d70a5811
DTITLE=Booba - Autopsie vol. 1
DYEAR=2005
DGENRE=Rap
TTITLE0=Intro
TTITLE1=Cash Flow
TTITLE2=Civilisé
TTITLE3=Freestyle Radio
TTITLE4=Pas L'Temps Pour Les Regrets
TTITLE5=Les Vrais Savent
TTITLE6=Comité D'Brailleurs feat. Luna
TTITLE7=Homme De L'Ombre
TTITLE8=Freestyle Radio
TTITLE9=Banlieue feat. Rim-k
TTITLE10=Inédit
TTITLE11=16 Rimes (Arsenik Lunatic)
TTITLE12=La Faucheuse Remix (PhreQuincy
TTITLE13=Freestyle Radio
TTITLE14=Plus De Respect (Unité Spécial
TTITLE15=Le Crime Paie
TTITLE16=Repose En Paix
EXTD=
EXTT0=
EXTT1=
EXTT2=
EXTT3=
EXTT4=
EXTT5=
EXTT6=
EXTT7=
EXTT8=
EXTT9=
EXTT10=
EXTT11=
EXTT12=
EXTT13=
EXTT14=
EXTT15=
EXTT16=
PLAYORDER=
